# xmcd
#
# Track frame offsets:
#   150
#   15382
#   32889
#   49668
#   73463
#   89562
#   100544
#   116924
#   134971
#   149760
#   164917
#   182507
#
# Disc length: 2603 seconds
#
# Revision: 0
# Processed by: cddbd v1.5.1PL0 Copyright (c) Steve Scherf et al.
# Submitted via: BirdCage ASPI Rip 3.0.1
#
DISCID=bc0a290c
DTITLE=The Mavericks - What a crying shame
DYEAR=1981
DGENRE=Country
TTITLE0=There Goes My Heart 
TTITLE1=What A Crying Shame 
TTITLE2=Pretend 
TTITLE3=I Should Have Been True 
TTITLE4=The Things You Said To Me 
TTITLE5=Just A Memory 
TTITLE6=All That Heaven Will Allow 
TTITLE7=Neon Blue 
TTITLE8=O What A Thrill
TTITLE9=Ain't Found Nobody
TTITLE10=Ain't Found Nobody
TTITLE11=none
EXTD=
EXTT0=
EXTT1=
EXTT2=
EXTT3=
EXTT4=
EXTT5=
EXTT6=
EXTT7=
EXTT8=
EXTT9=
EXTT10=
EXTT11=
PLAYORDER=
